<svg width="20" height="19" viewBox="0 0 20 19" fill="none" xmlns="http://www.w3.org/2000/svg">
<g clip-path="url(#clip0_2134_2465)">
<path d="M5.13846 15.0417L1.5918 17.8125V3.16667C1.5918 2.9567 1.67567 2.75534 1.82497 2.60687C1.97427 2.45841 2.17676 2.375 2.3879 2.375H16.7178C16.929 2.375 17.1315 2.45841 17.2808 2.60687C17.4301 2.75534 17.514 2.9567 17.514 3.16667V14.25C17.514 14.46 17.4301 14.6613 17.2808 14.8098C17.1315 14.9583 16.929 15.0417 16.7178 15.0417H5.13846ZM4.58755 13.4583H15.9217V3.95833H3.18401V14.5548L4.58755 13.4583ZM8.75677 7.91667H10.349V9.5H8.75677V7.91667ZM5.57234 7.91667H7.16455V9.5H5.57234V7.91667ZM11.9412 7.91667H13.5334V9.5H11.9412V7.91667Z" fill="#7C1BE2"/>
</g>
<defs>
<clipPath id="clip0_2134_2465">
<rect width="19.1066" height="19" fill="white"/>
</clipPath>
</defs>
</svg>
