<svg width="15" height="17" viewBox="0 0 15 17" fill="none" xmlns="http://www.w3.org/2000/svg">
<path id="Vector" d="M7.02878 0C3.14688 0 0 3.59644 0 8.03289C0 12.4693 3.14688 16.0658 7.02878 16.0658C10.9107 16.0658 14.0576 12.4693 14.0576 8.03289C14.0576 3.59644 10.9107 0 7.02878 0ZM10.3486 11.2316C10.3035 11.292 9.22125 12.7128 7.23519 12.7128C4.83486 12.7128 3.14025 10.6638 3.14025 7.99781C3.14025 5.36435 4.89756 3.35295 7.21473 3.35295C9.11242 3.35295 10.1046 4.56161 10.1459 4.61308C10.1968 4.67647 10.2278 4.75735 10.2342 4.84306C10.2405 4.92878 10.2218 5.01447 10.181 5.08673L9.5467 6.20923C9.43194 6.41222 9.18466 6.44733 9.02991 6.28357C9.02331 6.27664 8.27803 5.51008 7.27612 5.51008C5.96911 5.51008 5.1812 6.5976 5.1812 7.97443C5.1812 9.25716 5.90432 10.5557 7.28635 10.5557C8.38309 10.5557 9.13651 9.63782 9.14399 9.62852C9.28944 9.44827 9.54245 9.4655 9.66854 9.66263L10.3642 10.75C10.4094 10.8206 10.4324 10.9065 10.4296 10.9939C10.4267 11.0813 10.3982 11.165 10.3486 11.2316Z" fill="#595555"/>
</svg>
