<svg width="15" height="15" viewBox="0 0 15 15" fill="none" xmlns="http://www.w3.org/2000/svg">
<g id="Facebook">
<path id="Container" d="M0 5.03125C0 3.25159 0 2.36176 0.351833 1.68445C0.648319 1.1137 1.1137 0.648319 1.68445 0.351833C2.36176 0 3.25159 0 5.03125 0H9.96875C11.7484 0 12.6382 0 13.3155 0.351833C13.8863 0.648319 14.3517 1.1137 14.6482 1.68445C15 2.36176 15 3.25159 15 5.03125V9.96875C15 11.7484 15 12.6382 14.6482 13.3155C14.3517 13.8863 13.8863 14.3517 13.3155 14.6482C12.6382 15 11.7484 15 9.96875 15H5.03125C3.25159 15 2.36176 15 1.68445 14.6482C1.1137 14.3517 0.648319 13.8863 0.351833 13.3155C0 12.6382 0 11.7484 0 9.96875V5.03125Z" fill="url(#paint0_linear_2134_2637)"/>
<path id="Vector" d="M10.4167 9.58317L10.75 7.49984H8.75V6.0415C8.75 5.45817 8.95833 4.99984 9.875 4.99984H10.8333V3.08317C10.2917 2.99984 9.70833 2.9165 9.16667 2.9165C7.45833 2.9165 6.25 3.95817 6.25 5.83317V7.49984H4.375V9.58317H6.25V14.9998C7.08333 14.9998 7.91667 14.9998 8.75 14.9998V9.58317H10.4167Z" fill="white"/>
</g>
<defs>
<linearGradient id="paint0_linear_2134_2637" x1="7.5" y1="14.5617" x2="7.5" y2="0" gradientUnits="userSpaceOnUse">
<stop stop-color="#0062E0"/>
<stop offset="1" stop-color="#19AFFF"/>
</linearGradient>
</defs>
</svg>
