<svg width="15" height="15" viewBox="0 0 15 15" fill="none" xmlns="http://www.w3.org/2000/svg">
<g id="Instagram" clip-path="url(#clip0_2134_2639)">
<g id="Container">
<path d="M0.0078125 5.03125C0.0078125 3.25159 0.0078125 2.36176 0.359645 1.68445C0.656132 1.1137 1.12151 0.648319 1.69227 0.351833C2.36957 0 3.2594 0 5.03906 0H9.97656C11.7562 0 12.6461 0 13.3234 0.351833C13.8941 0.648319 14.3595 1.1137 14.656 1.68445C15.0078 2.36176 15.0078 3.25159 15.0078 5.03125V9.96875C15.0078 11.7484 15.0078 12.6382 14.656 13.3155C14.3595 13.8863 13.8941 14.3517 13.3234 14.6482C12.6461 15 11.7562 15 9.97656 15H5.03906C3.2594 15 2.36957 15 1.69227 14.6482C1.12151 14.3517 0.656132 13.8863 0.359645 13.3155C0.0078125 12.6382 0.0078125 11.7484 0.0078125 9.96875V5.03125Z" fill="url(#paint0_radial_2134_2639)"/>
<path d="M0.0078125 5.03125C0.0078125 3.25159 0.0078125 2.36176 0.359645 1.68445C0.656132 1.1137 1.12151 0.648319 1.69227 0.351833C2.36957 0 3.2594 0 5.03906 0H9.97656C11.7562 0 12.6461 0 13.3234 0.351833C13.8941 0.648319 14.3595 1.1137 14.656 1.68445C15.0078 2.36176 15.0078 3.25159 15.0078 5.03125V9.96875C15.0078 11.7484 15.0078 12.6382 14.656 13.3155C14.3595 13.8863 13.8941 14.3517 13.3234 14.6482C12.6461 15 11.7562 15 9.97656 15H5.03906C3.2594 15 2.36957 15 1.69227 14.6482C1.12151 14.3517 0.656132 13.8863 0.359645 13.3155C0.0078125 12.6382 0.0078125 11.7484 0.0078125 9.96875V5.03125Z" fill="url(#paint1_radial_2134_2639)"/>
</g>
<path id="Vector" d="M7.49976 2.04541C6.01844 2.04541 5.83253 2.05189 5.25073 2.07836C4.67007 2.10496 4.27372 2.19689 3.92691 2.33177C3.56817 2.47109 3.26386 2.65746 2.96069 2.96075C2.65729 3.26393 2.47093 3.56825 2.33116 3.92689C2.19594 4.27382 2.1039 4.6703 2.07776 5.25075C2.05174 5.83257 2.04492 6.01859 2.04492 7.49996C2.04492 8.98132 2.05151 9.16666 2.07788 9.74848C2.10458 10.3292 2.19651 10.7255 2.33128 11.0723C2.4707 11.4311 2.65706 11.7354 2.96035 12.0386C3.26341 12.342 3.56772 12.5288 3.92623 12.6681C4.27326 12.803 4.66973 12.895 5.25028 12.9215C5.83208 12.948 6.01787 12.9545 7.49907 12.9545C8.98051 12.9545 9.16584 12.948 9.74764 12.9215C10.3283 12.895 10.7251 12.803 11.0721 12.6681C11.4308 12.5288 11.7346 12.342 12.0377 12.0386C12.3411 11.7354 12.5274 11.4311 12.6672 11.0725C12.8013 10.7255 12.8933 10.329 12.9206 9.74859C12.9468 9.16677 12.9536 8.98132 12.9536 7.49996C12.9536 6.01859 12.9468 5.83268 12.9206 5.25086C12.8933 4.67018 12.8013 4.27382 12.6672 3.927C12.5274 3.56825 12.3411 3.26393 12.0377 2.96075C11.7343 2.65734 11.4309 2.47098 11.0718 2.33177C10.7241 2.19689 10.3275 2.10496 9.74685 2.07836C9.16505 2.05189 8.97983 2.04541 7.49805 2.04541H7.49976ZM7.01045 3.02836C7.15568 3.02814 7.31772 3.02836 7.49976 3.02836C8.95608 3.02836 9.12868 3.03359 9.70378 3.05973C10.2356 3.08405 10.5242 3.17291 10.7165 3.24757C10.971 3.34643 11.1525 3.46461 11.3433 3.65552C11.5342 3.84643 11.6524 4.02825 11.7514 4.2828C11.8261 4.47484 11.9151 4.76348 11.9393 5.2953C11.9654 5.8703 11.9711 6.04302 11.9711 7.4987C11.9711 8.95439 11.9654 9.12711 11.9393 9.70211C11.915 10.2339 11.8261 10.5226 11.7514 10.7146C11.6526 10.9692 11.5342 11.1504 11.3433 11.3412C11.1524 11.5321 10.9711 11.6503 10.7165 11.7492C10.5244 11.8242 10.2356 11.9128 9.70378 11.9371C9.1288 11.9633 8.95608 11.9689 7.49976 11.9689C6.04332 11.9689 5.87072 11.9633 5.29573 11.9371C4.76393 11.9126 4.4753 11.8237 4.28292 11.749C4.02838 11.6502 3.84657 11.532 3.65567 11.3411C3.46477 11.1502 3.34659 10.9688 3.2475 10.7142C3.17284 10.5221 3.08387 10.2335 3.05966 9.70166C3.03353 9.12666 3.0283 8.95393 3.0283 7.49734C3.0283 6.04075 3.03353 5.86893 3.05966 5.29393C3.08398 4.76211 3.17284 4.47348 3.2475 4.28121C3.34636 4.02666 3.46477 3.84484 3.65567 3.65393C3.84657 3.46302 4.02838 3.34484 4.28292 3.24575C4.47519 3.17075 4.76393 3.08211 5.29573 3.05768C5.7989 3.03496 5.99389 3.02814 7.01045 3.027V3.02836ZM10.4113 3.93405C10.0499 3.93405 9.75673 4.22689 9.75673 4.58836C9.75673 4.94973 10.0499 5.24291 10.4113 5.24291C10.7726 5.24291 11.0658 4.94973 11.0658 4.58836C11.0658 4.227 10.7726 3.93382 10.4113 3.93382V3.93405ZM7.49976 4.69882C5.95287 4.69882 4.6987 5.95302 4.6987 7.49996C4.6987 9.04689 5.95287 10.3005 7.49976 10.3005C9.04664 10.3005 10.3004 9.04689 10.3004 7.49996C10.3004 5.95302 9.04653 4.69882 7.49964 4.69882H7.49976ZM7.49976 5.68177C8.50382 5.68177 9.31788 6.49575 9.31788 7.49996C9.31788 8.50405 8.50382 9.31814 7.49976 9.31814C6.49558 9.31814 5.68163 8.50405 5.68163 7.49996C5.68163 6.49575 6.49558 5.68177 7.49976 5.68177Z" fill="white"/>
</g>
<defs>
<radialGradient id="paint0_radial_2134_2639" cx="0" cy="0" r="1" gradientUnits="userSpaceOnUse" gradientTransform="translate(3.99221 16.1553) rotate(-90) scale(14.8661 13.8266)">
<stop stop-color="#FFDD55"/>
<stop offset="0.1" stop-color="#FFDD55"/>
<stop offset="0.5" stop-color="#FF543E"/>
<stop offset="1" stop-color="#C837AB"/>
</radialGradient>
<radialGradient id="paint1_radial_2134_2639" cx="0" cy="0" r="1" gradientUnits="userSpaceOnUse" gradientTransform="translate(-2.50477 1.08057) rotate(78.6806) scale(6.64521 27.3918)">
<stop stop-color="#3771C8"/>
<stop offset="0.128" stop-color="#3771C8"/>
<stop offset="1" stop-color="#6600FF" stop-opacity="0"/>
</radialGradient>
<clipPath id="clip0_2134_2639">
<rect width="15" height="15" fill="white"/>
</clipPath>
</defs>
</svg>
